<?xml version="1.0" standalone="no"?>
<!DOCTYPE svg PUBLIC "-//W3C//DTD SVG 20010904//EN"
 "http://www.w3.org/TR/2001/REC-SVG-20010904/DTD/svg10.dtd">
<svg version="1.0" xmlns="http://www.w3.org/2000/svg"
 width="16.000000pt" height="16.000000pt" viewBox="0 0 16.000000 16.000000"
 preserveAspectRatio="xMidYMid meet">
<metadata>
Created by potrace 1.11, written by Peter Selinger 2001-2013
</metadata>
<g transform="translate(0.000000,16.000000) scale(0.002286,-0.002286)"
fill="#000000" stroke="none">
<path d="M898 6995 c-2 -2 -23 -6 -48 -9 -183 -24 -396 -129 -536 -264 -157
-151 -272 -370 -301 -572 -9 -62 -9 -244 0 -309 41 -299 235 -577 508 -730
323 -180 731 -163 1045 45 429 283 573 861 327 1314 -146 270 -418 466 -714
515 -43 7 -275 15 -281 10z"/>
<path d="M3382 6984 c-434 -77 -754 -407 -828 -854 -8 -48 -8 -216 0 -270 64
-433 376 -767 802 -855 82 -17 275 -23 333 -10 18 4 42 8 54 10 51 7 117 26
186 54 322 131 555 417 615 757 27 152 6 404 -42 519 -89 210 -192 349 -342
462 -113 85 -303 168 -430 188 -82 13 -274 12 -348 -1z"/>
<path d="M5820 6984 c-102 -20 -106 -21 -172 -46 -280 -101 -511 -335 -606
-613 -63 -184 -72 -397 -26 -580 136 -532 688 -864 1215 -730 343 87 610 334
718 665 53 161 63 389 23 546 -94 371 -365 646 -731 741 -115 30 -316 38 -421
17z"/>
<path d="M917 4504 c-1 -1 -26 -5 -55 -9 -418 -52 -772 -396 -847 -822 -20
-118 -13 -306 18 -423 80 -308 294 -555 587 -679 217 -92 481 -102 708 -25
362 121 627 441 677 818 13 91 8 240 -9 332 -66 340 -327 641 -651 751 -99 34
-127 41 -190 49 -56 7 -233 13 -238 8z"/>
<path d="M5897 4504 c-1 -2 -25 -5 -52 -9 -315 -37 -620 -262 -760 -560 -84
-179 -116 -385 -90 -577 4 -29 7 -54 7 -55 -1 -2 5 -21 13 -43 8 -22 12 -40
10 -40 -9 0 66 -174 100 -231 188 -314 523 -502 882 -493 103 2 167 10 243 30
375 102 653 398 729 779 24 121 22 301 -4 415 -94 407 -422 713 -830 775 -48
8 -242 14 -248 9z"/>
<path d="M3487 4454 c-1 -1 -24 -4 -52 -8 -289 -35 -536 -183 -706 -421 -45
-62 -110 -188 -125 -240 -1 -5 -12 -41 -22 -80 -69 -242 -33 -524 93 -751 139
-248 375 -423 660 -490 84 -19 287 -27 370 -13 328 54 603 256 753 554 36 72
78 207 91 290 9 62 7 278 -4 330 -44 217 -137 389 -290 540 -143 141 -291 220
-505 270 -42 10 -255 25 -263 19z"/>
<path d="M988 2015 c-2 -2 -30 -5 -63 -6 -332 -15 -664 -240 -819 -557 -77
-156 -105 -288 -100 -472 3 -108 9 -151 39 -275 13 -56 104 -232 153 -296 143
-192 373 -342 587 -383 17 -4 41 -9 55 -12 53 -12 268 -11 340 2 202 35 385
130 531 274 279 274 373 669 248 1048 -78 237 -271 456 -504 571 -89 44 -221
86 -305 95 -74 9 -158 14 -162 11z"/>
<path d="M3487 2014 c-1 -1 -30 -5 -64 -8 -175 -18 -391 -116 -531 -239 -74
-66 -164 -172 -198 -232 -6 -11 -20 -36 -31 -55 -47 -83 -92 -227 -109 -345
-8 -56 -7 -211 1 -265 60 -409 352 -735 750 -838 78 -21 121 -25 240 -26 174
-1 284 21 422 85 309 141 519 413 579 749 10 55 10 292 0 340 -24 120 -88 294
-122 331 -8 8 -14 19 -14 24 0 17 -101 143 -157 195 -82 78 -127 111 -213 158
-113 62 -241 104 -355 117 -52 6 -194 13 -198 9z"/>
<path d="M5968 2015 c-2 -1 -39 -5 -83 -8 -211 -15 -439 -124 -603 -288 -280
-279 -370 -691 -231 -1067 120 -328 420 -576 769 -636 83 -14 288 -15 355 -1
108 22 334 112 343 136 2 5 9 9 16 9 16 0 148 109 204 169 117 126 201 295
248 503 13 55 11 281 -3 355 -75 409 -391 728 -798 807 -70 13 -210 27 -217
21z"/>
</g>
</svg>
