<?xml version="1.0" encoding="UTF-8"?>
<svg width="200px" height="200px" viewBox="0 0 200 200" version="1.1" xmlns="http://www.w3.org/2000/svg" xmlns:xlink="http://www.w3.org/1999/xlink">
    <!-- Generator: Sketch 43.2 (39069) - http://www.bohemiancoding.com/sketch -->
    <title>eas_circle_unknown</title>
    <desc>Created with Sketch.</desc>
    <defs></defs>
    <g id="Page-1" stroke="none" stroke-width="1" fill="none" fill-rule="evenodd">
        <g id="eas_circle_unknown">
            <circle id="Oval" fill="#9B9B9B" cx="100" cy="100" r="100"></circle>
            <path d="M88.1147541,113.218579 C88.1147541,109.994519 88.5446223,107.25411 89.4043716,104.997268 C90.2641209,102.740426 91.714926,100.644818 93.7568306,98.7103825 C96.7659531,95.8087287 99.5332296,93.283253 102.058743,91.1338798 C104.584257,88.9845066 106.760464,86.9694994 108.587432,85.0887978 C110.414399,83.2080962 111.838337,81.4348899 112.85929,79.7691257 C113.880242,78.1033614 114.39071,76.3570219 114.39071,74.5300546 C114.39071,70.9835888 113.289173,68.2163123 111.086066,66.2281421 C108.882958,64.2399718 106.115682,63.2459016 102.784153,63.2459016 C97.7331259,63.2459016 93.8911789,64.6429733 91.2581967,67.4371585 C88.6252145,70.2313437 87.1475426,73.6165557 86.8251366,77.5928962 L62,75.9808743 C63.1821553,64.5891962 67.3733702,55.911232 74.5737705,49.9467213 C81.7741708,43.9822106 91.016337,41 102.300546,41 C107.244105,41 111.892055,41.6716691 116.244536,43.0150273 C120.597016,44.3583856 124.438963,46.3733928 127.770492,49.0601093 C131.10202,51.7468258 133.734963,55.0783043 135.669399,59.0546448 C137.603835,63.0309853 138.571038,67.5983349 138.571038,72.7568306 C138.571038,75.8734218 138.248637,78.6944318 137.603825,81.2199454 C136.959013,83.7454589 135.857476,86.2440678 134.29918,88.715847 C132.740885,91.1876262 130.699011,93.6862351 128.173497,96.2117486 C125.647984,98.7372622 122.450839,101.504539 118.581967,104.513661 C116.110188,106.448097 114.444449,108.32877 113.584699,110.155738 C112.72495,111.982705 112.295082,113.809645 112.295082,115.636612 L112.295082,120.311475 L88.1147541,120.311475 L88.1147541,113.218579 Z M85.3743169,144.169399 C85.3743169,142.127494 85.7504516,140.193087 86.5027322,138.36612 C87.2550129,136.539153 88.3028166,134.954014 89.6461749,133.610656 C90.9895331,132.267297 92.5746721,131.219494 94.4016393,130.467213 C96.2286066,129.714932 98.1630135,129.338798 100.204918,129.338798 C102.246823,129.338798 104.181229,129.714932 106.008197,130.467213 C107.835164,131.219494 109.420303,132.267297 110.763661,133.610656 C112.107019,134.954014 113.154823,136.539153 113.907104,138.36612 C114.659384,140.193087 115.035519,142.127494 115.035519,144.169399 C115.035519,146.211303 114.659384,148.14571 113.907104,149.972678 C113.154823,151.799645 112.107019,153.384784 110.763661,154.728142 C109.420303,156.0715 107.835164,157.119304 106.008197,157.871585 C104.181229,158.623865 102.246823,159 100.204918,159 C98.1630135,159 96.2286066,158.623865 94.4016393,157.871585 C92.5746721,157.119304 90.9895331,156.0715 89.6461749,154.728142 C88.3028166,153.384784 87.2550129,151.799645 86.5027322,149.972678 C85.7504516,148.14571 85.3743169,146.211303 85.3743169,144.169399 Z" id="?" fill="#FFFFFF"></path>
        </g>
    </g>
</svg>